<svg xmlns="http://www.w3.org/2000/svg" xmlns:xlink="http://www.w3.org/1999/xlink" viewBox="0 0 4066.29 216.65"><defs><style>.cls-1,.cls-4{fill:none;}.cls-2{clip-path:url(#clip-path);}.cls-3{opacity:0.5;fill:url(#未命名的渐变_123);}.cls-4{stroke:#fff;stroke-miterlimit:10;}</style><clipPath id="clip-path" transform="translate(370.98 -35.98)"><rect class="cls-1" width="1920" height="320.84"/></clipPath><linearGradient id="未命名的渐变_123" x1="985.68" y1="201.87" x2="985.68" y2="37.2" gradientUnits="userSpaceOnUse"><stop offset="0" stop-color="#fff" stop-opacity="0"/><stop offset="1" stop-color="#fff" stop-opacity="0.6"/></linearGradient></defs><g id="图层_2" data-name="图层 2"><g id="图层_1-2" data-name="图层 1"><g class="cls-2"><path class="cls-3" d="M0,157.73C84.3,157.73,147,38,281.92,38c170.84,0,157.84,119.76,356,119.76C817.71,157.73,842.14,36,997,36c185.5,0,243.28,121.75,380.1,121.75,148,0,179.78-121.75,321.21-121.75,160.49,0,212.39,120,273,121.75,12.77.38,0,51.1,0,51.1H0S-12.77,157.73,0,157.73Z" transform="translate(370.98 -35.98)"/><path class="cls-4" d="M3689,199.46C3626.49,197.62,3573,74,3407.62,74c-145.75,0-178.54,125.47-331,125.47-141,0-200.54-125.47-391.69-125.47-159.62,0-184.8,125.47-370.11,125.47C2110.63,199.46,2124,76.05,1948,76.05c-135.73,0-200.56,117.63-284.41,123.19C1602.47,193.23,1548,74,1385.55,74c-145.75,0-178.54,125.47-331,125.47C913.54,199.46,854,74,662.84,74,503.22,74,478,199.46,292.73,199.46,88.56,199.46,102,76.05-74.1,76.05c-139,0-203.65,123.41-290.53,123.41-13.16,0,0,52.66,0,52.66H3689S3702.13,199.85,3689,199.46Z" transform="translate(370.98 -35.98)"/></g></g></g></svg>